HIERARCHY
ROOT root
{
	OFFSET 0.000000 0.000000 0.000000
	CHANNELS 6 Xposition Yposition Zposition Zrotation Yrotation Xrotation
	JOINT lhip
	{
		OFFSET 0.058581 -0.082280 -0.017664
		CHANNELS 3 Zrotation Yrotation Xrotation
		JOINT lknee
		{
			OFFSET 0.043451 -0.386469 0.008037
			CHANNELS 3 Zrotation Yrotation Xrotation
			JOINT lankle
			{
				OFFSET -0.014790 -0.426874 -0.037428
				CHANNELS 3 Zrotation Yrotation Xrotation
				JOINT ltoe
				{
					OFFSET 0.041054 -0.060286 0.122042
					CHANNELS 3 Zrotation Yrotation Xrotation
					End Site
					{
						OFFSET 0.000000 0.000000 0.000000
					}
				}
			}
		}
	}
	JOINT rhip
	{
		OFFSET -0.060310 -0.090513 -0.013543
		CHANNELS 3 Zrotation Yrotation Xrotation
		JOINT rknee
		{
			OFFSET -0.043257 -0.383688 -0.004843
			CHANNELS 3 Zrotation Yrotation Xrotation
			JOINT rankle
			{
				OFFSET 0.019056 -0.420046 -0.034562
				CHANNELS 3 Zrotation Yrotation Xrotation
				JOINT rtoe
				{
					OFFSET -0.034840 -0.062106 0.130323
					CHANNELS 3 Zrotation Yrotation Xrotation
					End Site
					{
						OFFSET 0.000000 0.000000 0.000000
					}
				}
			}
		}
	}
	JOINT lowerback
	{
		OFFSET 0.004439 0.124404 -0.038385
		CHANNELS 3 Zrotation Yrotation Xrotation
		JOINT upperback
		{
			OFFSET 0.004488 0.137956 0.026820
			CHANNELS 3 Zrotation Yrotation Xrotation
			JOINT chest
			{
				OFFSET -0.002265 0.056032 0.002855
				CHANNELS 3 Zrotation Yrotation Xrotation
				JOINT lowerneck
				{
					OFFSET -0.013390 0.211636 -0.033468
					CHANNELS 3 Zrotation Yrotation Xrotation
					JOINT upperneck
					{
						OFFSET 0.010113 0.088937 0.050410
						CHANNELS 3 Zrotation Yrotation Xrotation
						End Site
						{
							OFFSET 0.000000 0.000000 0.000000
						}
					}
				}
				JOINT lclavicle
				{
					OFFSET 0.071702 0.114000 -0.018898
					CHANNELS 3 Zrotation Yrotation Xrotation
					JOINT lshoulder
					{
						OFFSET 0.122921 0.045205 -0.019046
						CHANNELS 3 Zrotation Yrotation Xrotation
						JOINT lelbow
						{
							OFFSET 0.255332 -0.015649 -0.022946
							CHANNELS 3 Zrotation Yrotation Xrotation
							JOINT lwrist
							{
								OFFSET 0.265709 0.012698 -0.007375
								CHANNELS 3 Zrotation Yrotation Xrotation
								End Site
								{
									OFFSET 0.000000 0.000000 0.000000
								}
							}
						}
					}
				}
				JOINT rclavicle
				{
					OFFSET -0.082954 0.112472 -0.023707
					CHANNELS 3 Zrotation Yrotation Xrotation
					JOINT rshoulder
					{
						OFFSET -0.113228 0.046853 -0.008472
						CHANNELS 3 Zrotation Yrotation Xrotation
						JOINT relbow
						{
							OFFSET -0.260127 -0.014369 -0.031269
							CHANNELS 3 Zrotation Yrotation Xrotation
							JOINT rwrist
							{
								OFFSET -0.269108 0.006794 -0.006027
								CHANNELS 3 Zrotation Yrotation Xrotation
								End Site
								{
									OFFSET 0.000000 0.000000 0.000000
								}
							}
						}
					}
				}
			}
		}
	}
}
MOTION
Frames: 6
Frame Time: 0.033333
-0.007806 0.265200 1.013239 87.848395 -0.837686 84.309268 2.624797 1.596563 6.662791 -4.076591 -3.624047 2.215711 -0.639527 12.740964 -3.654806 0.000000 -0.000000 0.000000 -4.326996 -4.408364 2.310138 0.583124 -1.563254 8.147177 5.307622 -8.863595 -5.264058 0.000000 -0.000000 0.000000 -1.890548 0.250233 9.129708 -0.088881 -1.121533 -0.071179 0.406278 1.246365 4.262299 -0.808502 0.499148 2.571112 1.466440 0.875613 17.875094 -16.886514 6.347821 3.717132 -53.614163 2.708912 19.783436 -19.949924 -60.572964 32.851192 8.799088 -4.925630 -41.269384 18.649358 3.137597 2.669214 53.637720 3.495336 25.502514 12.327815 45.464008 25.911973 6.906834 -0.534667 -11.713881 
-0.006654 0.265079 1.013009 87.966650 -0.787853 84.476878 2.660837 1.618910 6.542000 -4.077726 -3.874355 2.196693 -0.661225 12.795259 -3.617898 0.000000 -0.000000 0.000000 -4.221199 -4.362658 2.209554 0.521805 -1.439864 8.065323 5.387200 -9.044580 -5.516056 0.000000 -0.000000 0.000000 -1.893947 0.166796 8.892872 -0.159119 -1.054974 -0.102487 0.382965 1.276966 4.401000 -0.836925 0.323193 2.438405 1.556964 0.946319 17.991102 -16.847726 6.668534 3.630398 -53.889678 2.847291 19.595628 -19.743482 -60.767318 32.973816 9.271721 -4.503104 -41.773387 18.678541 2.875367 2.635316 53.885713 3.297034 25.425895 12.004965 45.499125 25.657755 6.690814 -0.502564 -12.055013 
-0.005470 0.264835 1.013045 88.108139 -0.763498 84.583810 2.680246 1.647600 6.478286 -4.053794 -3.962210 2.193270 -0.693476 12.776016 -3.709064 0.000000 -0.000000 0.000000 -4.167429 -4.400772 2.189249 0.483778 -1.512889 8.043989 5.327311 -9.078347 -5.587628 0.000000 -0.000000 0.000000 -1.920029 0.103448 8.819101 -0.188644 -1.003071 -0.291728 0.349846 1.380160 4.479316 -0.757187 0.245670 2.431138 1.579891 0.884462 18.140962 -16.806222 7.185667 3.646262 -54.071760 2.679051 19.409011 -19.914694 -60.768858 33.301864 9.444906 -4.775165 -42.252109 18.663990 2.501260 2.652109 54.250177 3.047670 25.333850 11.564182 45.462063 25.122595 6.472134 -0.357339 -12.132294 
-0.003500 0.264396 1.012950 88.162284 -0.754191 84.681305 2.710538 1.774155 6.511771 -4.043911 -4.109706 2.161762 -0.713424 12.703512 -3.768682 0.000000 -0.000000 0.000000 -4.120850 -4.396812 2.219836 0.463457 -1.559993 8.042030 5.306021 -9.086157 -5.700075 0.000000 -0.000000 0.000000 -1.958547 0.086215 8.585855 -0.207208 -0.906385 -0.303979 0.352972 1.322679 4.565060 -0.810321 0.202830 2.355920 1.519115 0.959889 18.077523 -16.806292 7.564618 3.660959 -54.388002 2.853843 19.257140 -19.482319 -61.031984 33.084718 9.408044 -4.767431 -42.229641 18.593000 2.209425 2.634027 54.599173 2.835639 25.179530 11.232146 45.403743 24.451245 6.483934 -0.139998 -12.622680 
-0.002157 0.264153 1.012967 88.194729 -0.762991 84.606776 2.698636 1.690778 6.720281 -4.025078 -4.081372 2.085102 -0.726257 12.747146 -3.836503 0.000000 -0.000000 0.000000 -4.126770 -4.386384 2.406720 0.442776 -1.624181 8.018679 5.354889 -9.100134 -5.772636 0.000000 -0.000000 0.000000 -1.931686 0.111941 8.629948 -0.231696 -0.902560 -0.373380 0.328543 1.346525 4.610848 -0.848094 0.160908 2.288093 1.483529 0.961346 18.054458 -16.735561 7.718472 3.629863 -54.561714 2.910938 19.223051 -19.387691 -61.026073 33.236540 9.392139 -4.844952 -42.463449 18.534459 2.052055 2.558216 54.857431 2.628551 25.120429 10.929609 45.413179 24.141095 6.471423 -0.186326 -12.936122 
-0.000638 0.263747 1.012836 88.294793 -0.755479 84.709033 2.723656 1.804505 6.667204 -4.004500 -4.205145 2.113411 -0.703035 12.662155 -3.816170 0.000000 -0.000000 0.000000 -4.088799 -4.413211 2.344843 0.450071 -1.608889 8.105340 5.247111 -9.155091 -5.908489 0.000000 -0.000000 0.000000 -1.935591 0.036962 8.360562 -0.216900 -0.900460 -0.276281 0.339424 1.367147 4.596322 -0.861757 0.285630 2.276327 1.416423 1.028369 18.013228 -16.770609 7.840419 3.682237 -54.738985 2.969008 19.113607 -19.037764 -60.919703 33.075704 9.530272 -4.814018 -42.561415 18.526331 1.895217 2.645727 55.040413 2.623861 25.005946 10.742646 45.311651 24.013286 6.128711 -0.177833 -13.262666 
